# xmcd
#
# Track frame offsets: 
#        150
#        19198
#        38702
#        57514
#        73945
#        90323
#        106323
#        123664
#        138634
#        151279
#        166342
#        185580
#        195608
#        216314
#        229724
#        241845
#        256576
#        268811
#        297368
#        310501
#
# Disc length: 4340 seconds
#
# Revision: 0
# Processed by: cddbd v1.5.2PL0 Copyright (c) Steve Scherf et al.
# Submitted via: ExactAudioCopyFreeDBPlugin 1.0
#
DISCID=2010f214
DTITLE=Michal Tucny - Legenda [CD1)
DYEAR=2015
DGENRE=Country
TTITLE0=Bajecna zenska
TTITLE1=Vsichni jsou uz v Mexiku
TTITLE2=Poveste ho vejs
TTITLE3=Abych tu zil
TTITLE4=Koukam, jak cela zeme vstava
TTITLE5=Michal Tucny and Zdenek Rytir - Chtel bych byt medvidkem
TTITLE6=Tam u nebeskych bran
TTITLE7=Spim v obili
TTITLE8=Ja budu zit naveky
TTITLE9=Posledni kovboj
TTITLE10=Staryho psa novym kouskum nenaucis
TTITLE11=Michal Tucny and Zdenek Rytir - Delame, co muzem
TTITLE12=Modra z dzin
TTITLE13=Boty z kuze toulavejch psu
TTITLE14=Rad se brouzdam rosou
TTITLE15=Diggy liggy
TTITLE16=Fidlej celej den
TTITLE17=Jak chcete zit bez koni
TTITLE18=Snidane v trave
TTITLE19=Pane muj
EXTD=
EXTT0=
EXTT1=
EXTT2=
EXTT3=
EXTT4=
EXTT5=
EXTT6=
EXTT7=
EXTT8=
EXTT9=
EXTT10=
EXTT11=
EXTT12=
EXTT13=
EXTT14=
EXTT15=
EXTT16=
EXTT17=
EXTT18=
EXTT19=
PLAYORDER=
